inDegrees=no
num_controls=7
num_derivatives=13
num_iterations=140
num_multipliers=7
num_parameters=0
num_slacks=7
num_states=26
objective=0.448485
objective_accelerations=0.060406
objective_balance=0.002864
objective_effort=0.022720
objective_height=0.355952
objective_ligament=0.006543
solver_duration=2111.471434
status=Solve_Succeeded
success=true
DataType=double
version=3
OpenSimVersion=4.5
endheader
time	/jointset/ground_pelvis/pelvis_tilt/value	/jointset/ground_pelvis/pelvis_tx/value	/jointset/ground_pelvis/pelvis_ty/value	/jointset/hip_l/hip_flexion_l/value	/jointset/hip_l/hip_adduction_l/value	/jointset/hip_l/hip_rotation_l/value	/jointset/back/lumbar_extension/value	/jointset/patellofemoral_l/patellar_flexion_l/value	/jointset/knee_l/knee_flexion_l/value	/jointset/knee_l/knee_adduction_l/value	/jointset/knee_l/knee_rotation_l/value	/jointset/ankle_l/ankle_angle_l/value	/jointset/subtalar_l/subtalar_angle_l/value	/jointset/ground_pelvis/pelvis_tilt/speed	/jointset/ground_pelvis/pelvis_tx/speed	/jointset/ground_pelvis/pelvis_ty/speed	/jointset/hip_l/hip_flexion_l/speed	/jointset/hip_l/hip_adduction_l/speed	/jointset/hip_l/hip_rotation_l/speed	/jointset/back/lumbar_extension/speed	/jointset/patellofemoral_l/patellar_flexion_l/speed	/jointset/knee_l/knee_flexion_l/speed	/jointset/knee_l/knee_adduction_l/speed	/jointset/knee_l/knee_rotation_l/speed	/jointset/ankle_l/ankle_angle_l/speed	/jointset/subtalar_l/subtalar_angle_l/speed	/forceset/tau_hip_flexion_l	/forceset/tau_hip_adduction_l	/forceset/tau_hip_rotation_l	/forceset/tau_knee_flexion_l	/forceset/tau_ankle_angle_l	/forceset/tau_subtalar_angle_l	/forceset/tau_lumbar_extension	lambda_cid13_p0	lambda_cid13_p1	lambda_cid13_p2	lambda_cid13_p3	lambda_cid13_p4	lambda_cid13_p5	lambda_cid14_p0	/jointset/ground_pelvis/pelvis_tilt/accel	/jointset/ground_pelvis/pelvis_tx/accel	/jointset/ground_pelvis/pelvis_ty/accel	/jointset/hip_l/hip_flexion_l/accel	/jointset/hip_l/hip_adduction_l/accel	/jointset/hip_l/hip_rotation_l/accel	/jointset/back/lumbar_extension/accel	/jointset/patellofemoral_l/patellar_flexion_l/accel	/jointset/knee_l/knee_flexion_l/accel	/jointset/knee_l/knee_adduction_l/accel	/jointset/knee_l/knee_rotation_l/accel	/jointset/ankle_l/ankle_angle_l/accel	/jointset/subtalar_l/subtalar_angle_l/accel	gamma_cid13_p0	gamma_cid13_p1	gamma_cid13_p2	gamma_cid13_p3	gamma_cid13_p4	gamma_cid13_p5	gamma_cid14_p0
1.5	-0.2868032396109215	0.005523906208261698	0.7636049982478318	1.029992199545411	-0.4082720024609102	-0.2959867468506565	-0.2204054535500276	0.8717772603432065	0.8717772603431879	0.02105739972031223	-0.1739628097652311	0.2176721703974628	0.07033990468924869	0.4411505150168413	0.2130912940978772	0.5574341173494795	-2.258115220813496	0.1965164440861425	-0.5375912681712519	0.3312225392108814	-2.218828650440375	-2.218828650440353	-0.5199415805952183	0.01549644000141097	-0.6214446110148952	-0.150943933384292	-0.1345289172905793	0.01504309542062188	-0.02114898668437481	-0.2312701062190667	0.009882279922968813	0.06203770585934378	0.141398412445872	-26.43842296817078	-24.96781466893217	6.67615912884105	-6.179579486761135	-514.864799432675	-80.556133011771	-22.24025878884242	0.5838849850556689	0.6361556768364712	-0.6675967769303262	-1.167187715506653	0.2891744495669508	-0.5553065243233379	1.3618790607022	-1.29704200942338	-1.297042009423354	-0.3230017414759219	0.3716492325209987	-0.7789953118143887	-0.04145059253868622	4.401094333425579e-07	3.874459056806017e-06	1.415897524438177e-06	8.603420228248446e-07	1.559993587023901e-07	1.198005259794783e-06	5.066152220251552e-07
1.51	-0.2823626937141027	0.007686335326864784	0.7691447919775887	1.007354723046896	-0.4062934632600117	-0.3013950619669026	-0.2170262469349757	0.8495267424840565	0.8495267424840554	0.01584378873932338	-0.1737941281476207	0.2114194561109169	0.06882750225251774	0.4468822458007045	0.2193574784935274	0.5504035839406557	-2.26905896703227	0.1991892088942346	-0.5439984381022124	0.3445702782950123	-2.23096631283439	-2.230966312834331	-0.5227291711886199	0.01827654561262835	-0.6289998750859596	-0.1514730712808174	-0.12989390552037	0.01329494777483011	-0.02021536015731882	-0.2270684375457735	0.01019927110176334	0.06115041576223828	0.1373768671694695	-26.18606028112605	-24.77053825928672	6.809061993338151	-6.03386767545758	-510.8677303699206	-80.88300492552057	-23.3232276621747	0.5562877910447432	0.6164769548992024	-0.7389159123380611	-1.009874993131818	0.2553359754943871	-0.6721693636073043	1.313945506611392	-1.125943828377477	-1.125943828371876	-0.2482025488580813	0.2369967203719705	-0.7287852382658622	-0.04999593960351312	4.402088934448866e-07	4.072801479660422e-06	1.600119812243085e-06	9.023673618071914e-07	1.269918237060819e-07	1.199938971929867e-06	5.245480623293936e-07
1.52	-0.2778671363762457	0.009910351716218369	0.7746106535153614	0.9846174277025798	-0.4042883947152189	-0.306865198209685	-0.213515018094214	0.8271640849061715	0.8271640849061827	0.01060398888627723	-0.1735964843749011	0.2050941905269573	0.06731153832654278	0.4521528032242904	0.2254087482479774	0.5426476789526496	-2.278078989973804	0.2018223128648898	-0.5499554934781687	0.3576269843528578	-2.241256594187881	-2.241256594187784	-0.5251793550054538	0.02128887102183959	-0.6359548704975603	-0.1516562312331046	-0.1252588937501695	0.01154680012903286	-0.0192817336303067	-0.2228667688724823	0.0105162622805572	0.06026312566512575	0.1333553218930605	-25.93598701751892	-24.57763502024641	6.948113581404912	-5.908107732024865	-506.9150063095031	-81.2389647983636	-24.4046364767743	0.4916503130002403	0.5931727485964368	-0.8126710927667783	-0.7824430600586381	0.2812422820795899	-0.465283613322548	1.303672455445142	-0.9275658013184924	-0.9275658013185013	-0.2555203861623795	0.4180931921197584	-0.6589415799216682	0.02774499630895113	4.364531348276995e-07	4.265409179119924e-06	1.809379330168418e-06	9.40013637447196e-07	9.720613431440079e-08	1.188452837432425e-06	5.391464367620233e-07
1.53	-0.2733212037862278	0.01219376591361263	0.7799954414034473	0.9617995032953166	-0.4022571098438368	-0.3123934452189963	-0.2098747782130968	0.8047077523599859	0.8047077523599995	0.005341901605842033	-0.1733681640319555	0.1987024786191305	0.06579564950880142	0.4569534857135805	0.2312330127238308	0.5341990449841627	-2.285184491021568	0.2044278777808578	-0.5556218700131352	0.370364727956259	-2.24969411841515	-2.249694118414974	-0.5271882501934174	0.02440038241796541	-0.6422793272284736	-0.1514605450944302	-0.120610692575716	0.009511449240864554	-0.01847070958550993	-0.2188512443482448	0.01086134133028992	0.05940786045537866	0.1293212102767124	-25.69273558289244	-24.40216532107674	7.095337133920116	-5.761169974004697	-503.2211920835338	-81.67630471641003	-25.48216332027055	0.4621583317798811	0.571089655087888	-0.8775775599157044	-0.6264870516085513	0.2484055688014283	-0.606287621542838	1.250385725652793	-0.7545874624570931	-0.7545874624452473	-0.1652864440533753	0.2618371597122857	-0.6026989139017386	0.02363898352964364	4.286012063210271e-07	4.451923734972342e-06	2.045240905096701e-06	9.730071582859621e-07	6.659365587763589e-08	1.162708115887924e-06	5.502019412060688e-07
1.54	-0.2687296881483388	0.01453423002736705	0.7852924193496432	0.9389201471926812	-0.4002001309288052	-0.3179761505832507	-0.2061088488133725	0.7821764962257247	0.7821764962257364	6.138290173465735e-05	-0.1731078971657719	0.1922508219051491	0.06428334926462341	0.4612694127983284	0.2368187315200114	0.5250856905746404	-2.290365329048265	0.2069611215946682	-0.5608471644664673	0.3827648880742675	-2.256241311803458	-2.256241311803204	-0.528865639738982	0.02767817566822242	-0.6479438317284095	-0.1509385165204377	-0.1159624914012711	0.007476098352689977	-0.01765968554075586	-0.214835719824009	0.01120642038002168	0.0585525952456234	0.1252870986603583	-25.45040299295653	-24.2300081095619	7.24705442241005	-5.633157081087263	-499.5520772358926	-82.13187551645359	-26.55435440650431	0.3946992320917986	0.5454636126618487	-0.9456151809738235	-0.3975104558453801	0.2667780616480953	-0.3770671969956938	1.236155758366599	-0.5494996335264154	-0.549499633526405	-0.1892192576825629	0.4513495629459893	-0.5269511337261708	0.09301348337256342	4.247571471655472e-07	4.608900600557125e-06	2.218230126057412e-06	9.950573545043955e-07	4.8083013965149e-08	1.126406997440463e-06	5.615870532461456e-07
1.55	-0.2640974711662971	0.01692920846445806	0.7904950188440351	0.9159988293937212	-0.3981180658481582	-0.3236092820163301	-0.2022208781776801	0.7595893468546471	0.7595893468546546	-0.005233906891649803	-0.1728143632990467	0.1857458071251286	0.06277803448808876	0.4650883442920092	0.242120949019426	0.5153295631065478	-2.293545269375576	0.2094446963575386	-0.5656993801202653	0.3947487131605737	-2.260848500868059	-2.260848500867858	-0.5301291878698252	0.03104982622023529	-0.6529482532886743	-0.1500651193562502	-0.1113486937156866	0.006013542595016613	-0.01700869882595863	-0.210655780280524	0.01136320009490532	0.05722979985182888	0.1212251897021824	-25.30369526935739	-23.81807119676221	7.337714752420521	-5.275702041417227	-496.0401959759187	-82.09284601668192	-27.6206621096679	0.3625473647768986	0.514401735610603	-1.006300113614067	-0.2253979259698753	0.2371975931877669	-0.5271333068451431	1.167416998233609	-0.3654352889429195	-0.3654352889509328	-0.08457790654387035	0.2836548307632183	-0.4702733903709923	0.09234751624001179	4.255308505233977e-07	4.731844909963981e-06	2.318779460925055e-06	1.004498937573316e-06	4.351579239585128e-08	1.077943073865681e-06	5.733519305599107e-07
1.56	-0.2594296534179636	0.0193755692599491	0.7955969193469685	0.8930562797705289	-0.3960115549379659	-0.3292885025174034	-0.1982154850682305	0.7369663042437217	0.7369663042437218	-0.0105397632294963	-0.1724863965209101	0.1791941309848663	0.06128302261985566	0.4683895660565153	0.2470952032000175	0.5049458922829808	-2.294611693894723	0.2118502875036607	-0.5700649780649946	0.4062493828257186	-2.263419959773298	-2.263419959773151	-0.5309789486310161	0.03456475794961911	-0.6572761037767134	-0.1488779348601363	-0.1067348960301124	0.00455098683733697	-0.01635771211119166	-0.2064758407370398	0.01151997980978814	0.0559070044580262	0.1171632807439991	-25.1552405853446	-23.41156619780036	7.435094578729645	-4.943487286856547	-492.5225415827117	-82.06539995492574	-28.68144188513633	0.2911572862568758	0.4798709488972208	-1.071123852068651	0.02519270578737999	0.2511813382984496	-0.2797436551819585	1.13952467413433	-0.1423536016539875	-0.1423536016539942	-0.1064617837521499	0.4800057984201761	-0.3916369192810352	0.155770949757819	4.184407870239449e-07	4.930390982100133e-06	2.55347966555694e-06	1.03389716455403e-06	1.042857416938138e-08	1.012809382769067e-06	5.882213041557117e-07
1.57	-0.2547314233765832	0.02187009583976022	0.8005920410238774	0.8701132988380664	-0.3938813309342256	-0.3350098122419904	-0.194097662008558	0.7143275461754819	0.7143275461754958	-0.01585175176583886	-0.172123338953535	0.1726026903515206	0.05980159545808744	0.4711659132658097	0.2517604706878806	0.4939915174823258	-2.29366122885063	0.2141707012529184	-0.5740732350393098	0.417224782941955	-2.264003668322529	-2.264003668322395	-0.5314182254377484	0.03808509508478832	-0.6608922404816006	-0.1473666857903421	-0.1018173689237339	0.00119892818804737	-0.01581949815527273	-0.2034151276117597	0.01218387687798477	0.05557400008449365	0.112924770962258	-24.8330404724833	-23.50875110165245	7.662353648497442	-4.902422122688783	-489.5562408085269	-83.25076344400442	-29.73803425699248	0.2571676593580994	0.4526322436087002	-1.120652713457391	0.1783235318309056	0.2178209095602232	-0.4426645426507204	1.062980755364414	0.03269479789784643	0.03269479789593769	-0.0115502457736377	0.2943211110482534	-0.328318022959935	0.1536797113184001	4.015210149528628e-07	5.223439257647903e-06	2.955868457394127e-06	1.088241196424484e-06	-5.830863987855338e-08	9.268384822701629e-07	6.069712981040573e-07
1.58	-0.2500081710188906	0.02440983061342554	0.8054750072689011	0.8471894925816668	-0.3917288328897283	-0.3407674641011405	-0.189872798332724	0.6916927658776416	0.6916927658776678	-0.02116791099357727	-0.1717238233268083	0.1659787451557523	0.05833625635216278	0.4733940293187977	0.2561368419708609	0.4825148059059421	-2.290776758682115	0.2163050956550091	-0.5773334049774008	0.4276575060580362	-2.262624405693541	-2.262624405693419	-0.531813086910076	0.04185636981927576	-0.663777016261183	-0.1456603236914208	-0.09689984181736598	-0.002153130461247894	-0.01528128419937598	-0.20035441448648	0.01284777394618075	0.05524099571095387	0.1086862611805089	-24.50763699155979	-23.60495361245	7.887691640282001	-4.877979735953592	-486.549127865237	-84.42065844473181	-30.7917849106349	0.1815110549956231	0.4220917079206673	-1.175591207214385	0.4119937306715768	0.213977468865071	-0.1301262479370673	1.030989274103327	0.2502406339898683	0.2502406339898752	-0.09757871687121492	0.5301933182838235	-0.2453647342201104	0.1947935555832228	2.620099342393918e-07	5.470941388666491e-06	4.108142345960337e-06	1.180877335516967e-06	-3.136424816422236e-07	6.013783974509667e-07	5.637738733379577e-07
